<mxfile host="app.diagrams.net" modified="2022-01-25T08:14:54.484Z" agent="5.0 (Windows NT 10.0; Win64; x64) AppleWebKit/537.36 (KHTML, like Gecko) Chrome/97.0.4692.99 Safari/537.36" etag="CKIjsv0l3nTXtT33GcuM" version="15.9.4" type="github">
  <diagram id="pQwIgnDyv7QdWSuPX1SX" name="Page-1">
    <mxGraphModel dx="1263" dy="762" grid="1" gridSize="10" guides="1" tooltips="1" connect="1" arrows="1" fold="1" page="1" pageScale="1" pageWidth="827" pageHeight="1169" math="0" shadow="0">
      <root>
        <mxCell id="0" />
        <mxCell id="1" parent="0" />
        <mxCell id="w6JTfiA-GKiWQxV2u0JO-1" value="" style="triangle;whiteSpace=wrap;html=1;direction=north;" vertex="1" parent="1">
          <mxGeometry x="225" y="150" width="350" height="640" as="geometry" />
        </mxCell>
        <mxCell id="w6JTfiA-GKiWQxV2u0JO-2" value="&lt;h1&gt;聊天技巧&lt;/h1&gt;" style="text;html=1;align=center;verticalAlign=middle;resizable=0;points=[];autosize=1;strokeColor=none;fillColor=none;" vertex="1" parent="1">
          <mxGeometry x="359" y="70" width="110" height="50" as="geometry" />
        </mxCell>
        <mxCell id="w6JTfiA-GKiWQxV2u0JO-4" value="" style="endArrow=none;html=1;rounded=0;entryX=0.119;entryY=0.937;entryDx=0;entryDy=0;entryPerimeter=0;exitX=0.12;exitY=0.063;exitDx=0;exitDy=0;exitPerimeter=0;" edge="1" parent="1" source="w6JTfiA-GKiWQxV2u0JO-1" target="w6JTfiA-GKiWQxV2u0JO-1">
          <mxGeometry width="50" height="50" relative="1" as="geometry">
            <mxPoint x="310" y="520" as="sourcePoint" />
            <mxPoint x="360" y="470" as="targetPoint" />
          </mxGeometry>
        </mxCell>
        <mxCell id="w6JTfiA-GKiWQxV2u0JO-7" value="" style="endArrow=none;html=1;rounded=0;entryX=0.119;entryY=0.937;entryDx=0;entryDy=0;entryPerimeter=0;exitX=0.297;exitY=0.149;exitDx=0;exitDy=0;exitPerimeter=0;" edge="1" parent="1" source="w6JTfiA-GKiWQxV2u0JO-1">
          <mxGeometry width="50" height="50" relative="1" as="geometry">
            <mxPoint x="219.99999999999994" y="600" as="sourcePoint" />
            <mxPoint x="525.9000000000001" y="600.6399999999999" as="targetPoint" />
          </mxGeometry>
        </mxCell>
        <mxCell id="w6JTfiA-GKiWQxV2u0JO-8" value="" style="endArrow=none;html=1;rounded=0;entryX=0.119;entryY=0.937;entryDx=0;entryDy=0;entryPerimeter=0;exitX=0.42;exitY=0.214;exitDx=0;exitDy=0;exitPerimeter=0;" edge="1" parent="1" source="w6JTfiA-GKiWQxV2u0JO-1">
          <mxGeometry width="50" height="50" relative="1" as="geometry">
            <mxPoint x="199.99999999999994" y="520" as="sourcePoint" />
            <mxPoint x="505.90000000000003" y="520.6399999999999" as="targetPoint" />
          </mxGeometry>
        </mxCell>
        <mxCell id="w6JTfiA-GKiWQxV2u0JO-9" value="" style="endArrow=none;html=1;rounded=0;entryX=0.531;entryY=0.731;entryDx=0;entryDy=0;entryPerimeter=0;exitX=0.531;exitY=0.26;exitDx=0;exitDy=0;exitPerimeter=0;" edge="1" parent="1" source="w6JTfiA-GKiWQxV2u0JO-1" target="w6JTfiA-GKiWQxV2u0JO-1">
          <mxGeometry width="50" height="50" relative="1" as="geometry">
            <mxPoint x="350" y="440" as="sourcePoint" />
            <mxPoint x="460" y="441" as="targetPoint" />
          </mxGeometry>
        </mxCell>
        <mxCell id="w6JTfiA-GKiWQxV2u0JO-10" value="&lt;h1&gt;&lt;font style=&quot;vertical-align: inherit&quot;&gt;&lt;font style=&quot;vertical-align: inherit&quot;&gt;行为&lt;/font&gt;&lt;/font&gt;&lt;/h1&gt;" style="text;html=1;align=center;verticalAlign=middle;resizable=0;points=[];autosize=1;strokeColor=none;fillColor=none;" vertex="1" parent="1">
          <mxGeometry x="370" y="630" width="60" height="50" as="geometry" />
        </mxCell>
        <mxCell id="w6JTfiA-GKiWQxV2u0JO-11" value="" style="endArrow=none;html=1;rounded=0;exitX=0.672;exitY=0.346;exitDx=0;exitDy=0;exitPerimeter=0;entryX=0.672;entryY=0.666;entryDx=0;entryDy=0;entryPerimeter=0;" edge="1" parent="1" source="w6JTfiA-GKiWQxV2u0JO-1" target="w6JTfiA-GKiWQxV2u0JO-1">
          <mxGeometry width="50" height="50" relative="1" as="geometry">
            <mxPoint x="326" y="450.15999999999985" as="sourcePoint" />
            <mxPoint x="460" y="363" as="targetPoint" />
          </mxGeometry>
        </mxCell>
        <mxCell id="w6JTfiA-GKiWQxV2u0JO-12" value="&lt;h1&gt;&lt;font style=&quot;vertical-align: inherit&quot;&gt;&lt;font style=&quot;vertical-align: inherit&quot;&gt;能力&lt;/font&gt;&lt;/font&gt;&lt;/h1&gt;" style="text;html=1;align=center;verticalAlign=middle;resizable=0;points=[];autosize=1;strokeColor=none;fillColor=none;" vertex="1" parent="1">
          <mxGeometry x="370" y="535" width="60" height="50" as="geometry" />
        </mxCell>
        <mxCell id="w6JTfiA-GKiWQxV2u0JO-13" value="&lt;h1&gt;&lt;font style=&quot;vertical-align: inherit&quot;&gt;&lt;font style=&quot;vertical-align: inherit&quot;&gt;&lt;font style=&quot;vertical-align: inherit&quot;&gt;&lt;font style=&quot;vertical-align: inherit&quot;&gt;想成为谁&lt;/font&gt;&lt;/font&gt;&lt;/font&gt;&lt;/font&gt;&lt;/h1&gt;" style="text;html=1;align=center;verticalAlign=middle;resizable=0;points=[];autosize=1;strokeColor=none;fillColor=none;" vertex="1" parent="1">
          <mxGeometry x="345" y="460" width="110" height="50" as="geometry" />
        </mxCell>
        <mxCell id="w6JTfiA-GKiWQxV2u0JO-14" value="&lt;h1&gt;&lt;font style=&quot;vertical-align: inherit&quot;&gt;&lt;font style=&quot;vertical-align: inherit&quot;&gt;&lt;font style=&quot;vertical-align: inherit&quot;&gt;&lt;font style=&quot;vertical-align: inherit&quot;&gt;为想成为谁&lt;/font&gt;&lt;/font&gt;&lt;/font&gt;&lt;/font&gt;&lt;/h1&gt;" style="text;html=1;align=center;verticalAlign=middle;resizable=0;points=[];autosize=1;strokeColor=none;fillColor=none;" vertex="1" parent="1">
          <mxGeometry x="330" y="380" width="140" height="50" as="geometry" />
        </mxCell>
        <mxCell id="w6JTfiA-GKiWQxV2u0JO-15" value="&lt;h1&gt;&lt;font style=&quot;vertical-align: inherit&quot;&gt;&lt;font style=&quot;vertical-align: inherit&quot;&gt;&lt;font style=&quot;vertical-align: inherit&quot;&gt;&lt;font style=&quot;vertical-align: inherit&quot;&gt;系统&lt;/font&gt;&lt;/font&gt;&lt;/font&gt;&lt;/font&gt;&lt;/h1&gt;" style="text;html=1;align=center;verticalAlign=middle;resizable=0;points=[];autosize=1;strokeColor=none;fillColor=none;" vertex="1" parent="1">
          <mxGeometry x="370" y="280" width="60" height="50" as="geometry" />
        </mxCell>
        <mxCell id="w6JTfiA-GKiWQxV2u0JO-16" value="&lt;h1&gt;&lt;font style=&quot;vertical-align: inherit&quot;&gt;&lt;font style=&quot;vertical-align: inherit&quot;&gt;&lt;font style=&quot;vertical-align: inherit&quot;&gt;&lt;font style=&quot;vertical-align: inherit&quot;&gt;环境&lt;/font&gt;&lt;/font&gt;&lt;/font&gt;&lt;/font&gt;&lt;/h1&gt;" style="text;html=1;align=center;verticalAlign=middle;resizable=0;points=[];autosize=1;strokeColor=none;fillColor=none;" vertex="1" parent="1">
          <mxGeometry x="370" y="730" width="60" height="50" as="geometry" />
        </mxCell>
      </root>
    </mxGraphModel>
  </diagram>
</mxfile>
